<svg width="512" height="512" viewBox="0 0 512 512" fill="none" xmlns="http://www.w3.org/2000/svg">
  <defs>
    <linearGradient id="bg" x1="56" y1="48" x2="456" y2="464" gradientUnits="userSpaceOnUse">
      <stop stop-color="#C2255C"/>
      <stop offset="1" stop-color="#E8590C"/>
    </linearGradient>
    <radialGradient id="glow" cx="0" cy="0" r="1" gradientUnits="userSpaceOnUse" gradientTransform="translate(180 136) rotate(43.1524) scale(300 266)">
      <stop stop-color="#FFFFFF" stop-opacity="0.28"/>
      <stop offset="1" stop-color="#FFFFFF" stop-opacity="0"/>
    </radialGradient>
  </defs>
  <rect width="512" height="512" rx="128" fill="url(#bg)"/>
  <rect width="512" height="512" rx="128" fill="url(#glow)"/>
  <circle cx="392" cy="120" r="42" fill="#FFFFFF" fill-opacity="0.08"/>
  <circle cx="134" cy="392" r="58" fill="#FFFFFF" fill-opacity="0.06"/>
  <g fill="#FFFFFF" transform="translate(32 34) scale(0.875)">
    <path d="M156 228C156 214.745 166.745 204 180 204H332C345.255 204 356 214.745 356 228V236C356 287.915 313.915 330 262 330H250C198.085 330 156 287.915 156 236V228Z" fill-opacity="0.98"/>
    <path d="M142 232C142 223.163 149.163 216 158 216H354C362.837 216 370 223.163 370 232C370 240.837 362.837 248 354 248H158C149.163 248 142 240.837 142 232Z" fill-opacity="0.9"/>
    <path d="M315.653 129.192C321.629 120.908 333.196 119.038 341.48 125.014L363.371 140.806C371.655 146.782 373.525 158.349 367.549 166.633L297.943 263.115C291.967 271.399 280.4 273.269 272.116 267.293L250.225 251.501C241.941 245.525 240.071 233.958 246.047 225.674L315.653 129.192Z" fill-opacity="0.98"/>
    <path d="M207.484 170.845C226.059 154.779 257.225 149.809 282.728 160.613C300.969 168.341 314.338 183.363 319.818 202.24C320.864 205.842 317.543 209.102 314.12 207.571C292.214 197.774 266.197 197.605 244.166 207.487C230.668 213.542 218.675 223.166 209.84 235.363C207.635 238.408 202.878 237.307 202.275 233.6C198.933 213.052 200.894 189.615 207.484 170.845Z" fill-opacity="0.72"/>
    <path d="M309.857 150.567C326.196 145.298 346.302 147.843 362.341 162.05C378.38 176.257 384.58 195.542 382.273 212.549C381.921 215.146 378.713 216.24 376.907 214.343L258.421 89.936C256.615 88.0393 257.842 84.7704 260.428 84.9923C277.361 86.4453 293.518 95.1381 303.716 110.319C311.573 122.012 314.26 136.357 311.578 149.425C311.398 150.305 310.725 150.847 309.857 150.567Z" fill-opacity="0.9"/>
    <path d="M253.111 144.177C267.267 129.74 286.743 121.568 306.959 121.568C310.155 121.568 312.274 124.889 310.934 127.79C304.424 141.883 291.434 153.883 273.753 161.09C256.071 168.296 237.719 169.44 222.446 165.082C219.301 164.184 218.369 160.24 220.726 158.05C231.419 148.112 242.659 143.206 253.111 144.177Z" fill-opacity="0.58"/>
  </g>
</svg>
